<svg xmlns="http://www.w3.org/2000/svg" viewBox="0 0 219.3 35.09"><defs><style>.cls-1{fill:#fff;}</style></defs><g id="Capa_2" data-name="Capa 2"><g id="Capa_1-2" data-name="Capa 1"><path class="cls-1" d="M0,34.6,6.88.49H22.76q5.41,0,8.31,2A6.44,6.44,0,0,1,34,8.14a8.75,8.75,0,0,1-1.65,5.41,10.53,10.53,0,0,1-4.22,3.34A13.59,13.59,0,0,1,22.57,18l1.22-1.7a9.72,9.72,0,0,1,6.3,2,6.8,6.8,0,0,1,2.41,5.6,9.1,9.1,0,0,1-1.95,5.95,11.68,11.68,0,0,1-5.36,3.58,23.88,23.88,0,0,1-7.93,1.19Zm7.37-5H17.65a11.21,11.21,0,0,0,6.24-1.46,4.79,4.79,0,0,0,2.21-4.29,3.31,3.31,0,0,0-1.64-3.19,9.59,9.59,0,0,0-4.55-.9H8.46l.93-4.92h10a13,13,0,0,0,4.15-.61,5.66,5.66,0,0,0,2.76-1.88,5.17,5.17,0,0,0,1-3.17,3.05,3.05,0,0,0-1.54-2.85,8.77,8.77,0,0,0-4.36-.9H12.19Z"/><path class="cls-1" d="M53.14,35.09A15.8,15.8,0,0,1,45,33.19a10.26,10.26,0,0,1-4.55-5.36,14.57,14.57,0,0,1-.37-8.09L44,.49h6.39L46.51,19.64A15.2,15.2,0,0,0,46.28,24a6.24,6.24,0,0,0,1.16,3.1A5.62,5.62,0,0,0,50,28.93a10.86,10.86,0,0,0,3.78.61,10.12,10.12,0,0,0,4.79-1.05,8.52,8.52,0,0,0,3.32-3.22A17.9,17.9,0,0,0,64,19.59L67.79.49h6.29L70.15,20q-1.52,7.56-5.8,11.31T53.14,35.09Z"/><path class="cls-1" d="M76.2,34.6,83.08.49H97a21.19,21.19,0,0,1,9,1.73,13.11,13.11,0,0,1,5.73,4.87,13.76,13.76,0,0,1,2,7.48,21.23,21.23,0,0,1-1.55,8.24,18,18,0,0,1-4.38,6.34,19.33,19.33,0,0,1-6.76,4,25.61,25.61,0,0,1-8.7,1.41Zm7.47-5.36h8.8a15.89,15.89,0,0,0,7.94-1.87,12.94,12.94,0,0,0,5.09-5.1A14.89,14.89,0,0,0,107.27,15,9.16,9.16,0,0,0,106,10.14,8.05,8.05,0,0,0,102.38,7a14.5,14.5,0,0,0-6.07-1.12h-8Z"/><path class="cls-1" d="M134.26,35.09a20,20,0,0,1-8.9-1.83,13.72,13.72,0,0,1-5.78-5.11,14.2,14.2,0,0,1-2-7.63,21.31,21.31,0,0,1,1.5-8A19.51,19.51,0,0,1,130.13,1.56,23.66,23.66,0,0,1,138.93,0a21.47,21.47,0,0,1,8.21,1.44,13.23,13.23,0,0,1,5.6,4.21l-4.62,3.76a9.88,9.88,0,0,0-4.06-2.95,14.87,14.87,0,0,0-5.38-.9,16.17,16.17,0,0,0-6.1,1.09A13.24,13.24,0,0,0,128,9.75a14.28,14.28,0,0,0-3,4.65,15.25,15.25,0,0,0-1.06,5.73,9.71,9.71,0,0,0,1.23,4.92,8.15,8.15,0,0,0,3.71,3.32A14.34,14.34,0,0,0,135,29.54a14.06,14.06,0,0,0,5.09-.91,15.23,15.23,0,0,0,4.5-2.7l2.51,5A19,19,0,0,1,141.16,34,22.71,22.71,0,0,1,134.26,35.09Zm7-5.17,2.55-12.72h6L147.09,31Z"/><path class="cls-1" d="M162.18,29.24h19.47l-1.08,5.36H154.76L161.64.49h25.12l-1.08,5.36H166.9Zm2.51-14.57h17.1l-1,5.22H163.65Z"/><path class="cls-1" d="M194.67,34.6l5.76-28.75H189L190.15.49H219.3l-1.08,5.36h-11.4L201,34.6Z"/></g></g></svg>