<svg xmlns="http://www.w3.org/2000/svg" viewBox="0 0 323.74 83.48"><defs><style>.cls-1{fill:#fff;}</style></defs><g id="Capa_2" data-name="Capa 2"><g id="Capa_1-2" data-name="Capa 1"><path class="cls-1" d="M5.77,42.44a1.46,1.46,0,0,0-.22,0c.15,0,.29,0,.44,0Z"/><path class="cls-1" d="M104.43,58.8l6.88-34.12h15.88q5.42,0,8.31,1.95a6.44,6.44,0,0,1,2.9,5.7,8.78,8.78,0,0,1-1.64,5.41,10.46,10.46,0,0,1-4.23,3.34A13.4,13.4,0,0,1,127,42.23l1.23-1.71a9.71,9.71,0,0,1,6.29,1.95,6.82,6.82,0,0,1,2.41,5.61A9.13,9.13,0,0,1,135,54a11.71,11.71,0,0,1-5.36,3.58,24,24,0,0,1-7.94,1.2Zm7.38-5h10.27a11.29,11.29,0,0,0,6.24-1.46,4.82,4.82,0,0,0,2.22-4.29,3.34,3.34,0,0,0-1.65-3.2,9.56,9.56,0,0,0-4.55-.9H112.89l.93-4.92h10a12.77,12.77,0,0,0,4.15-.61,5.53,5.53,0,0,0,2.76-1.88,5.08,5.08,0,0,0,1-3.16,3.06,3.06,0,0,0-1.55-2.85,8.59,8.59,0,0,0-4.35-.91h-9.2Z"/><path class="cls-1" d="M157.57,59.29a15.93,15.93,0,0,1-8.11-1.9A10.22,10.22,0,0,1,144.92,52a14.47,14.47,0,0,1-.37-8.09l3.88-19.25h6.39l-3.88,19.16a14.8,14.8,0,0,0-.22,4.36,6.1,6.1,0,0,0,1.15,3.09,5.53,5.53,0,0,0,2.56,1.83,10.63,10.63,0,0,0,3.78.61,10.19,10.19,0,0,0,4.8-1,8.61,8.61,0,0,0,3.31-3.21,17.9,17.9,0,0,0,2.07-5.68l3.83-19.11h6.3l-3.94,19.55q-1.52,7.55-5.8,11.3T157.57,59.29Z"/><path class="cls-1" d="M180.63,58.8l6.88-34.12h13.92a21.33,21.33,0,0,1,9,1.73,13.13,13.13,0,0,1,5.73,4.88,13.65,13.65,0,0,1,2,7.48A21.14,21.14,0,0,1,216.59,47a18,18,0,0,1-4.37,6.34,19.69,19.69,0,0,1-6.76,4,25.69,25.69,0,0,1-8.7,1.41Zm7.47-5.36h8.8a15.89,15.89,0,0,0,7.94-1.88,13,13,0,0,0,5.09-5.09,14.92,14.92,0,0,0,1.77-7.31,9.23,9.23,0,0,0-1.23-4.83,8.11,8.11,0,0,0-3.66-3.17A14.62,14.62,0,0,0,200.74,30h-8Z"/><path class="cls-1" d="M238.69,59.29a20,20,0,0,1-8.9-1.83A13.74,13.74,0,0,1,224,52.34a14.15,14.15,0,0,1-2-7.63,21.22,21.22,0,0,1,1.5-8,19.39,19.39,0,0,1,4.33-6.56,19.9,19.9,0,0,1,6.76-4.39,23.86,23.86,0,0,1,8.8-1.55,21.44,21.44,0,0,1,8.21,1.43,13.19,13.19,0,0,1,5.6,4.22l-4.62,3.75a10,10,0,0,0-4.05-3,15,15,0,0,0-5.39-.9,16.08,16.08,0,0,0-6.09,1.1,13,13,0,0,0-4.62,3.09,14.46,14.46,0,0,0-3,4.66,15.43,15.43,0,0,0-1.06,5.72,9.72,9.72,0,0,0,1.23,4.93,8.11,8.11,0,0,0,3.72,3.31,15.72,15.72,0,0,0,11.2.27,15.05,15.05,0,0,0,4.5-2.71l2.51,5a18.6,18.6,0,0,1-5.92,3.07A22.52,22.52,0,0,1,238.69,59.29Zm7-5.17,2.55-12.72h6l-2.75,13.74Z"/><path class="cls-1" d="M266.61,53.44h19.47L285,58.8H259.19l6.88-34.12h25.12L290.11,30H271.33Zm2.51-14.57h17.11l-1,5.21h-17.1Z"/><path class="cls-1" d="M299.11,58.8,304.86,30H293.45l1.13-5.36h29.16L322.65,30h-11.4l-5.8,28.76Z"/><path class="cls-1" d="M104.43,72.09l.19-1h5.57l-.21,1Zm2.67,8.07a2.39,2.39,0,0,1-1.31-.34,1.77,1.77,0,0,1-.77-.95,2.87,2.87,0,0,1,0-1.47l1.65-8.31h1.21l-1.64,8.26a1.7,1.7,0,0,0,.13,1.3,1.2,1.2,0,0,0,1.1.46,2.33,2.33,0,0,0,.74-.11,1.87,1.87,0,0,0,.65-.35l.29.92a2.67,2.67,0,0,1-1,.46A4.71,4.71,0,0,1,107.1,80.16Z"/><path class="cls-1" d="M115,80.16a5,5,0,0,1-2.24-.47,3.49,3.49,0,0,1-1.46-1.33,4,4,0,0,1-.5-2,5.69,5.69,0,0,1,.65-2.74,5,5,0,0,1,1.78-1.9,4.84,4.84,0,0,1,2.56-.69,4.48,4.48,0,0,1,2.07.45,3.36,3.36,0,0,1,1.36,1.31,4.08,4.08,0,0,1,.49,2.06,5.4,5.4,0,0,1,0,.56q0,.28-.09.54h-7.9l.15-.91H119l-.49.34a3.2,3.2,0,0,0-.16-1.81,2.35,2.35,0,0,0-1-1.13,3.29,3.29,0,0,0-1.62-.38,3.57,3.57,0,0,0-1.95.54,3.66,3.66,0,0,0-1.34,1.49,4.84,4.84,0,0,0-.48,2.22,2.71,2.71,0,0,0,.78,2.08,3.3,3.3,0,0,0,2.34.73,4.56,4.56,0,0,0,1.68-.3A3.46,3.46,0,0,0,118,78l.55.87a4.57,4.57,0,0,1-1.59,1A5.82,5.82,0,0,1,115,80.16Z"/><path class="cls-1" d="M125.3,80.16a4.91,4.91,0,0,1-2.22-.47,3.5,3.5,0,0,1-1.44-1.33,4,4,0,0,1-.5-2,5.52,5.52,0,0,1,.67-2.75,4.92,4.92,0,0,1,1.85-1.91,5.34,5.34,0,0,1,2.72-.69,4.77,4.77,0,0,1,2.15.45,3.31,3.31,0,0,1,1.4,1.35l-1,.6a2.36,2.36,0,0,0-1-1,3.48,3.48,0,0,0-1.58-.33,3.8,3.8,0,0,0-2,.55,3.89,3.89,0,0,0-1.4,1.5,4.53,4.53,0,0,0-.51,2.18,2.7,2.7,0,0,0,.78,2.06,3.12,3.12,0,0,0,2.22.74,3.76,3.76,0,0,0,1.62-.34,3.07,3.07,0,0,0,1.23-1l.87.66a3.86,3.86,0,0,1-1.59,1.26A5.17,5.17,0,0,1,125.3,80.16Z"/><path class="cls-1" d="M137.06,71a3.83,3.83,0,0,1,2,.47,2.48,2.48,0,0,1,1.08,1.36,4,4,0,0,1,0,2.13l-1,5.12h-1.22l1-5.14a2.53,2.53,0,0,0-.29-2.09,2.28,2.28,0,0,0-2-.75,3.65,3.65,0,0,0-2.39.78,4,4,0,0,0-1.27,2.37l-1,4.83h-1.22l1.78-9h1.17l-.52,2.58-.25-.44a4.05,4.05,0,0,1,1.68-1.7A5.09,5.09,0,0,1,137.06,71Z"/><path class="cls-1" d="M146.46,80.16a4.71,4.71,0,0,1-2.16-.47,3.47,3.47,0,0,1-1.43-1.33,4,4,0,0,1-.5-2,5.52,5.52,0,0,1,.67-2.75,4.92,4.92,0,0,1,1.85-1.91,5.2,5.2,0,0,1,2.69-.69,4.71,4.71,0,0,1,2.16.46,3.44,3.44,0,0,1,1.43,1.32,4,4,0,0,1,.5,2,5.52,5.52,0,0,1-.67,2.75,4.9,4.9,0,0,1-1.84,1.91A5.13,5.13,0,0,1,146.46,80.16Zm.09-1.08a3.73,3.73,0,0,0,3.4-2,4.58,4.58,0,0,0,.51-2.18,2.71,2.71,0,0,0-.78-2.07,3.07,3.07,0,0,0-2.19-.74,3.78,3.78,0,0,0-2,.55,3.89,3.89,0,0,0-1.4,1.5,4.53,4.53,0,0,0-.51,2.18,2.7,2.7,0,0,0,.78,2.06A3.07,3.07,0,0,0,146.55,79.08Z"/><path class="cls-1" d="M153.2,80.07l2.53-12.71H157l-2.54,12.71Z"/><path class="cls-1" d="M161.82,80.16a4.73,4.73,0,0,1-2.17-.47,3.44,3.44,0,0,1-1.42-1.33,3.89,3.89,0,0,1-.51-2,5.52,5.52,0,0,1,.67-2.75,4.92,4.92,0,0,1,1.85-1.91,5.23,5.23,0,0,1,2.69-.69,4.75,4.75,0,0,1,2.17.46,3.42,3.42,0,0,1,1.42,1.32,3.88,3.88,0,0,1,.5,2,5.62,5.62,0,0,1-.66,2.75,4.92,4.92,0,0,1-1.85,1.91A5.12,5.12,0,0,1,161.82,80.16Zm.08-1.08a3.73,3.73,0,0,0,3.4-2,4.58,4.58,0,0,0,.51-2.18,2.71,2.71,0,0,0-.78-2.07,3.07,3.07,0,0,0-2.19-.74,3.78,3.78,0,0,0-2,.55,3.89,3.89,0,0,0-1.4,1.5,4.64,4.64,0,0,0-.5,2.18,2.7,2.7,0,0,0,.78,2.06A3,3,0,0,0,161.9,79.08Z"/><path class="cls-1" d="M171.87,83.48a7.17,7.17,0,0,1-2.28-.35,4.83,4.83,0,0,1-1.73-1l.72-.93a4,4,0,0,0,1.43.88,5.78,5.78,0,0,0,2,.32,3.52,3.52,0,0,0,3.91-3.22l.48-2.36.46-1.48L177,73.8l.53-2.72h1.16L177.12,79a5.72,5.72,0,0,1-1.75,3.45A5.32,5.32,0,0,1,171.87,83.48Zm.6-3.75a4.58,4.58,0,0,1-2.08-.45A3.29,3.29,0,0,1,169,78a3.61,3.61,0,0,1-.49-1.92,5.39,5.39,0,0,1,.37-2,5,5,0,0,1,1.07-1.61,4.61,4.61,0,0,1,1.62-1.08,5.39,5.39,0,0,1,2.08-.39,4.67,4.67,0,0,1,1.92.38,3,3,0,0,1,1.32,1.13,3.42,3.42,0,0,1,.49,1.92,5.82,5.82,0,0,1-.58,2.68,4.78,4.78,0,0,1-1.7,1.92A4.73,4.73,0,0,1,172.47,79.73Zm.24-1.08a4,4,0,0,0,2-.51,3.86,3.86,0,0,0,1.39-1.42,4,4,0,0,0,.52-2,2.44,2.44,0,0,0-.79-1.92,3.18,3.18,0,0,0-2.19-.7,3.93,3.93,0,0,0-2,.52A3.62,3.62,0,0,0,170.24,74a4.08,4.08,0,0,0-.51,2,2.44,2.44,0,0,0,.79,1.93A3.23,3.23,0,0,0,172.71,78.65Z"/><path class="cls-1" d="M180.29,80.07l1.78-9h1.21l-1.78,9Zm1.52-10.4,2.61-2.12h1.66l-3,2.12Z"/><path class="cls-1" d="M188.73,80.16a4.38,4.38,0,0,1-2-.47,3.29,3.29,0,0,1-1.38-1.31,4.06,4.06,0,0,1-.5-2,5.68,5.68,0,0,1,.38-2.13,5,5,0,0,1,1.06-1.7,4.83,4.83,0,0,1,1.62-1.13,5.21,5.21,0,0,1,2-.39,4.35,4.35,0,0,1,2,.42,3,3,0,0,1,1.27,1.22,3.84,3.84,0,0,1,.45,1.92,6.71,6.71,0,0,1-.6,2.9,4.74,4.74,0,0,1-1.7,2A4.6,4.6,0,0,1,188.73,80.16Zm.26-1.08a3.73,3.73,0,0,0,3.4-2,4.58,4.58,0,0,0,.51-2.18,2.71,2.71,0,0,0-.78-2.07,3.07,3.07,0,0,0-2.19-.74,3.78,3.78,0,0,0-2,.55,3.89,3.89,0,0,0-1.4,1.5,4.52,4.52,0,0,0-.5,2.18,2.7,2.7,0,0,0,.78,2.06A3,3,0,0,0,189,79.08Zm3,1,.52-2.59.51-1.81.17-1.89.55-2.7h1.22l-1.8,9Z"/><path class="cls-1" d="M201,80.07l2.54-12.71h1.21l-2.53,12.71Z"/><path class="cls-1" d="M209.62,80.16a4.76,4.76,0,0,1-2.17-.47A3.51,3.51,0,0,1,206,78.36a3.89,3.89,0,0,1-.51-2,5.63,5.63,0,0,1,.67-2.75A5.07,5.07,0,0,1,208,71.68a5.26,5.26,0,0,1,2.69-.69,4.73,4.73,0,0,1,2.17.46,3.36,3.36,0,0,1,1.42,1.32,3.89,3.89,0,0,1,.51,2,5.52,5.52,0,0,1-.67,2.75,4.9,4.9,0,0,1-1.84,1.91A5.13,5.13,0,0,1,209.62,80.16Zm.09-1.08a3.73,3.73,0,0,0,3.4-2,4.7,4.7,0,0,0,.5-2.18,2.71,2.71,0,0,0-.78-2.07,3.06,3.06,0,0,0-2.18-.74,3.76,3.76,0,0,0-3.4,2,4.53,4.53,0,0,0-.51,2.18,2.7,2.7,0,0,0,.78,2.06A3.07,3.07,0,0,0,209.71,79.08Z"/><path class="cls-1" d="M218,80.07l-1.76-9h1.11l1.6,8.34h-.55l4.76-8.34h1l1.64,8.34h-.54L230,71.08h1.18l-5.09,9h-1.18l-1.61-7.85h.38l-4.49,7.85Z"/><path class="cls-1" d="M239.73,80.16a4.91,4.91,0,0,1-2.22-.47,3.38,3.38,0,0,1-1.44-1.33,3.89,3.89,0,0,1-.51-2,5.52,5.52,0,0,1,.67-2.75,5,5,0,0,1,1.86-1.91A5.3,5.3,0,0,1,240.8,71a4.78,4.78,0,0,1,2.16.45,3.29,3.29,0,0,1,1.39,1.35l-1,.6a2.34,2.34,0,0,0-1-1,3.52,3.52,0,0,0-1.59-.33,3.82,3.82,0,0,0-2,.55,4,4,0,0,0-1.4,1.5,4.64,4.64,0,0,0-.5,2.18,2.7,2.7,0,0,0,.78,2.06,3.12,3.12,0,0,0,2.22.74,3.83,3.83,0,0,0,1.62-.34,3.11,3.11,0,0,0,1.22-1l.88.66a3.82,3.82,0,0,1-1.6,1.26A5.12,5.12,0,0,1,239.73,80.16Z"/><path class="cls-1" d="M249.15,80.16a4.76,4.76,0,0,1-2.17-.47,3.51,3.51,0,0,1-1.42-1.33,3.89,3.89,0,0,1-.51-2,5.63,5.63,0,0,1,.67-2.75,5,5,0,0,1,1.85-1.91,5.26,5.26,0,0,1,2.69-.69,4.73,4.73,0,0,1,2.17.46,3.36,3.36,0,0,1,1.42,1.32,3.89,3.89,0,0,1,.51,2,5.52,5.52,0,0,1-.67,2.75,5,5,0,0,1-1.84,1.91A5.13,5.13,0,0,1,249.15,80.16Zm.09-1.08a3.73,3.73,0,0,0,3.4-2,4.7,4.7,0,0,0,.5-2.18,2.71,2.71,0,0,0-.78-2.07,3.06,3.06,0,0,0-2.18-.74,3.81,3.81,0,0,0-2,.55,3.86,3.86,0,0,0-1.39,1.5,4.53,4.53,0,0,0-.51,2.18,2.7,2.7,0,0,0,.78,2.06A3.07,3.07,0,0,0,249.24,79.08Z"/><path class="cls-1" d="M258.5,80.16a7,7,0,0,1-2.07-.31,4.18,4.18,0,0,1-1.51-.79l.59-1a3.61,3.61,0,0,0,1.35.73,5.73,5.73,0,0,0,1.76.26,3.84,3.84,0,0,0,2-.42,1.33,1.33,0,0,0,.7-1.19.92.92,0,0,0-.37-.78,3,3,0,0,0-.95-.41L258.74,76a9.24,9.24,0,0,1-1.23-.35,2.15,2.15,0,0,1-.95-.66,1.81,1.81,0,0,1-.37-1.2,2.34,2.34,0,0,1,.49-1.49,3.17,3.17,0,0,1,1.36-1A5.59,5.59,0,0,1,260.1,71a6.48,6.48,0,0,1,1.69.22,3.9,3.9,0,0,1,1.36.62l-.52,1a3.2,3.2,0,0,0-1.23-.59A5.66,5.66,0,0,0,260,72a3.46,3.46,0,0,0-1.93.45,1.38,1.38,0,0,0-.68,1.19.92.92,0,0,0,.37.79,2.89,2.89,0,0,0,.95.43c.39.1.8.19,1.24.28a6.85,6.85,0,0,1,1.24.35,2.42,2.42,0,0,1,.94.64,1.75,1.75,0,0,1,.37,1.18,2.35,2.35,0,0,1-.5,1.51,3.08,3.08,0,0,1-1.4,1A5.85,5.85,0,0,1,258.5,80.16Z"/><path class="cls-1" d="M264.43,72.09l.19-1h5.57l-.21,1Zm2.68,8.07a2.4,2.4,0,0,1-1.32-.34,1.77,1.77,0,0,1-.77-.95,2.87,2.87,0,0,1,0-1.47l1.65-8.31h1.21l-1.64,8.26a1.7,1.7,0,0,0,.13,1.3,1.2,1.2,0,0,0,1.1.46,2.33,2.33,0,0,0,.74-.11,1.78,1.78,0,0,0,.65-.35l.29.92a2.52,2.52,0,0,1-1,.46A4.7,4.7,0,0,1,267.11,80.16Z"/><path class="cls-1" d="M79.84,42.63A24,24,0,0,0,76,40.48,26.74,26.74,0,0,0,86.4,33a19.77,19.77,0,0,0,4.48-13.12q0-9.54-7.52-14.73T60.94,0H16.7L12.76,19.68H54.14a10,10,0,0,1,5.43,1.25,4.29,4.29,0,0,1,2,3.88,7.41,7.41,0,0,1-1,3.87,6.21,6.21,0,0,1-3,2.51,13.66,13.66,0,0,1-5.3.89H18.5a10,10,0,0,0-9.83,8.06L0,83.48H48.18a64.32,64.32,0,0,0,19.56-2.8A31.23,31.23,0,0,0,81.87,72q5.31-5.89,5.31-15.08A16.37,16.37,0,0,0,79.84,42.63ZM56.59,61.9a11.58,11.58,0,0,1-6.86,1.9H31.6l2.63-13.11H52.35a8.6,8.6,0,0,1,4.84,1.37,4.6,4.6,0,0,1,2.08,4.11A6.56,6.56,0,0,1,56.59,61.9Z"/></g></g></svg>