<svg xmlns="http://www.w3.org/2000/svg" xmlns:xlink="http://www.w3.org/1999/xlink" viewBox="0 0 218.46 34.96"><defs><style>.cls-1{fill:url(#Degradado_sin_nombre_29);}.cls-2{fill:#fff;}.cls-3{fill:url(#Degradado_sin_nombre_29-2);}.cls-4{fill:url(#Degradado_sin_nombre_29-4);}.cls-5{fill:url(#Degradado_sin_nombre_29-5);}</style><linearGradient id="Degradado_sin_nombre_29" y1="17.48" x2="218.46" y2="17.48" gradientUnits="userSpaceOnUse"><stop offset="0" stop-color="#00b0b9"/><stop offset="0" stop-color="#00b0b3"/><stop offset="1" stop-color="#00b910"/></linearGradient><linearGradient id="Degradado_sin_nombre_29-2" y1="17.72" x2="218.46" y2="17.72" xlink:href="#Degradado_sin_nombre_29"/><linearGradient id="Degradado_sin_nombre_29-4" x1="-736.93" y1="17.48" x2="588.67" y2="17.48" xlink:href="#Degradado_sin_nombre_29"/><linearGradient id="Degradado_sin_nombre_29-5" x1="-3408.01" y1="17.48" x2="1365.45" y2="17.48" xlink:href="#Degradado_sin_nombre_29"/></defs><g id="Capa_2" data-name="Capa 2"><g id="Capa_1-2" data-name="Capa 1"><path class="cls-1" d="M30,18.21a8.16,8.16,0,0,0-2.25-1.28l.27-.11A10.59,10.59,0,0,0,32.2,13.5a8.76,8.76,0,0,0,1.64-5.39A6.4,6.4,0,0,0,31,2.43C29,1.13,26.26.49,22.67.49H6.86L0,34.47H17.19a24.06,24.06,0,0,0,7.91-1.19,11.58,11.58,0,0,0,5.34-3.57,9.06,9.06,0,0,0,1.93-5.92A6.75,6.75,0,0,0,30,18.21ZM12.15,5.44H21.3a8.69,8.69,0,0,1,4.34.9,3.06,3.06,0,0,1,1.54,2.84,5,5,0,0,1-1,3.15,5.52,5.52,0,0,1-2.74,1.87,12.71,12.71,0,0,1-4.14.61H10.28ZM23.8,28.06a11.24,11.24,0,0,1-6.22,1.46H7.35l2-9.81H19.83a9.47,9.47,0,0,1,4.53.9A3.3,3.3,0,0,1,26,23.79,4.78,4.78,0,0,1,23.8,28.06Z"/><path class="cls-2" d="M63.71,19.52a17.71,17.71,0,0,1-2.06,5.65,8.59,8.59,0,0,1-3.3,3.21,10.2,10.2,0,0,1-4.78,1,10.61,10.61,0,0,1-3.77-.61A5.57,5.57,0,0,1,47.26,27a6.06,6.06,0,0,1-1.15-3.08,14.68,14.68,0,0,1,.22-4.34L50.2.49H43.83L40,19.66a14.46,14.46,0,0,0,.37,8.06,10.13,10.13,0,0,0,4.53,5.34A15.79,15.79,0,0,0,52.94,35q6.9,0,11.16-3.74T69.88,20L73.8.49H67.53Z"/><path class="cls-3" d="M63.71,19.52a17.71,17.71,0,0,1-2.06,5.65,8.59,8.59,0,0,1-3.3,3.21,10.2,10.2,0,0,1-4.78,1,10.61,10.61,0,0,1-3.77-.61A5.57,5.57,0,0,1,47.26,27a6.06,6.06,0,0,1-1.15-3.08,14.68,14.68,0,0,1,.22-4.34L50.2.49H43.83L40,19.66a14.46,14.46,0,0,0,.37,8.06,10.13,10.13,0,0,0,4.53,5.34A15.79,15.79,0,0,0,52.94,35q6.9,0,11.16-3.74T69.88,20L73.8.49H67.53Z"/><path class="cls-2" d="M105.58,2.21a21.19,21.19,0,0,0-9-1.72H82.76l-6.85,34H92a25.52,25.52,0,0,0,8.67-1.41,19.36,19.36,0,0,0,6.73-4,17.89,17.89,0,0,0,4.36-6.31,21,21,0,0,0,1.54-8.2,13.69,13.69,0,0,0-2-7.46A13.08,13.08,0,0,0,105.58,2.21Zm-.49,20A12.81,12.81,0,0,1,100,27.26a15.77,15.77,0,0,1-7.91,1.87H83.35L88,5.83h7.93a14.5,14.5,0,0,1,6,1.11,8.07,8.07,0,0,1,3.65,3.16,9.13,9.13,0,0,1,1.23,4.81A14.83,14.83,0,0,1,105.09,22.19Z"/><path class="cls-1" d="M105.58,2.21a21.19,21.19,0,0,0-9-1.72H82.76l-6.85,34H92a25.52,25.52,0,0,0,8.67-1.41,19.36,19.36,0,0,0,6.73-4,17.89,17.89,0,0,0,4.36-6.31,21,21,0,0,0,1.54-8.2,13.69,13.69,0,0,0-2-7.46A13.08,13.08,0,0,0,105.58,2.21Zm-.49,20A12.81,12.81,0,0,1,100,27.26a15.77,15.77,0,0,1-7.91,1.87H83.35L88,5.83h7.93a14.5,14.5,0,0,1,6,1.11,8.07,8.07,0,0,1,3.65,3.16,9.13,9.13,0,0,1,1.23,4.81A14.83,14.83,0,0,1,105.09,22.19Z"/><path class="cls-2" d="M146.52,30.83l2.74-13.69h-6l-2.14,10.64a15.64,15.64,0,0,0,2.87-2Z"/><path class="cls-2" d="M127.47,9.71a13.11,13.11,0,0,1,4.6-3.08,16,16,0,0,1,6.08-1.1,14.8,14.8,0,0,1,5.36.9,9.88,9.88,0,0,1,4,2.94l4.6-3.74a13.17,13.17,0,0,0-5.58-4.2A21.47,21.47,0,0,0,138.39,0a23.69,23.69,0,0,0-8.76,1.55,19.77,19.77,0,0,0-6.74,4.37,19.61,19.61,0,0,0-4.31,6.53,21.34,21.34,0,0,0-1.49,8,14.18,14.18,0,0,0,2,7.6,13.71,13.71,0,0,0,5.76,5.1A20,20,0,0,0,133.74,35a22.63,22.63,0,0,0,6.88-1.07,18.57,18.57,0,0,0,5.9-3.06l-5.78-1,.41-2a12.93,12.93,0,0,1-1.61.74,14.16,14.16,0,0,1-5.07.9,14.35,14.35,0,0,1-6.09-1.16,8.1,8.1,0,0,1-3.7-3.31,9.61,9.61,0,0,1-1.22-4.9,15.28,15.28,0,0,1,1.05-5.7A14.21,14.21,0,0,1,127.47,9.71Z"/><path class="cls-2" d="M146.52,30.83l-2.5-5a15.64,15.64,0,0,1-2.87,2l-.41,2Z"/><path class="cls-4" d="M141.15,27.78a12.93,12.93,0,0,1-1.61.74,14.16,14.16,0,0,1-5.07.9,14.35,14.35,0,0,1-6.09-1.16,8.1,8.1,0,0,1-3.7-3.31,9.61,9.61,0,0,1-1.22-4.9,15.28,15.28,0,0,1,1.05-5.7,14.21,14.21,0,0,1,3-4.64,13.11,13.11,0,0,1,4.6-3.08,16,16,0,0,1,6.08-1.1,14.8,14.8,0,0,1,5.36.9,9.88,9.88,0,0,1,4,2.94l4.6-3.74a13.17,13.17,0,0,0-5.58-4.2A21.47,21.47,0,0,0,138.39,0a23.69,23.69,0,0,0-8.76,1.55,19.77,19.77,0,0,0-6.74,4.37,19.61,19.61,0,0,0-4.31,6.53,21.34,21.34,0,0,0-1.49,8,14.18,14.18,0,0,0,2,7.6,13.71,13.71,0,0,0,5.76,5.1A20,20,0,0,0,133.74,35a22.63,22.63,0,0,0,6.88-1.07,18.57,18.57,0,0,0,5.9-3.06l2.74-13.69h-6Z"/><polygon class="cls-2" points="154.16 34.47 179.87 34.47 180.95 29.13 161.56 29.13 163.44 19.81 163.03 19.81 164.05 14.61 164.48 14.61 166.26 5.83 184.96 5.83 186.04 0.48 161.02 0.48 154.16 34.47"/><polygon class="cls-2" points="180.07 19.81 181.09 14.61 164.48 14.61 163.44 19.81 180.07 19.81"/><polygon class="cls-2" points="163.03 19.81 163.44 19.81 164.48 14.61 164.05 14.61 163.03 19.81"/><polygon class="cls-5" points="184.96 5.83 186.04 0.48 161.02 0.48 154.16 34.47 179.87 34.47 180.95 29.13 161.56 29.13 163.44 19.81 180.07 19.81 181.09 14.61 164.48 14.61 166.26 5.83 184.96 5.83"/><polygon class="cls-2" points="188.29 5.83 199.66 5.83 193.93 34.47 200.24 34.47 206.02 5.83 217.38 5.83 218.46 0.48 189.42 0.48 188.29 5.83"/><polygon class="cls-1" points="188.29 5.83 199.66 5.83 193.93 34.47 200.24 34.47 206.02 5.83 217.38 5.83 218.46 0.48 189.42 0.48 188.29 5.83"/></g></g></svg>